<mxfile host="65bd71144e">
    <diagram id="yejB0t-oFjQoPB7UPLmL" name="第 1 页">
        <mxGraphModel dx="1002" dy="576" grid="0" gridSize="10" guides="1" tooltips="1" connect="1" arrows="1" fold="1" page="0" pageScale="1" pageWidth="827" pageHeight="1169" math="0" shadow="0">
            <root>
                <mxCell id="0"/>
                <mxCell id="1" parent="0"/>
                <mxCell id="2" value="&lt;font color=&quot;#ff8000&quot; style=&quot;font-size: 18px;&quot;&gt;Mulitprocessor&lt;/font&gt;" style="text;html=1;align=center;verticalAlign=middle;resizable=0;points=[];autosize=1;strokeColor=none;fillColor=none;" vertex="1" parent="1">
                    <mxGeometry x="88" y="155" width="135" height="34" as="geometry"/>
                </mxCell>
                <mxCell id="3" value="CPU" style="whiteSpace=wrap;html=1;aspect=fixed;fontSize=18;fontColor=#FF8000;" vertex="1" parent="1">
                    <mxGeometry x="276" y="70" width="62" height="62" as="geometry"/>
                </mxCell>
                <mxCell id="4" value="CPU" style="whiteSpace=wrap;html=1;aspect=fixed;fontSize=18;fontColor=#FF8000;" vertex="1" parent="1">
                    <mxGeometry x="399" y="67" width="62" height="62" as="geometry"/>
                </mxCell>
                <mxCell id="8" value="" style="edgeStyle=none;shape=link;html=1;fontSize=18;fontColor=#FF8000;" edge="1" parent="1" source="5" target="3">
                    <mxGeometry relative="1" as="geometry"/>
                </mxCell>
                <mxCell id="5" value="CPU" style="whiteSpace=wrap;html=1;aspect=fixed;fontSize=18;fontColor=#FF8000;" vertex="1" parent="1">
                    <mxGeometry x="276" y="176" width="62" height="62" as="geometry"/>
                </mxCell>
                <mxCell id="9" value="" style="edgeStyle=none;shape=link;html=1;fontSize=18;fontColor=#FF8000;" edge="1" parent="1" source="6" target="4">
                    <mxGeometry relative="1" as="geometry"/>
                </mxCell>
                <mxCell id="6" value="CPU" style="whiteSpace=wrap;html=1;aspect=fixed;fontSize=18;fontColor=#FF8000;" vertex="1" parent="1">
                    <mxGeometry x="399" y="176" width="62" height="62" as="geometry"/>
                </mxCell>
                <mxCell id="10" value="" style="endArrow=none;html=1;fontSize=18;fontColor=#FF8000;shape=link;" edge="1" parent="1">
                    <mxGeometry width="50" height="50" relative="1" as="geometry">
                        <mxPoint x="276" y="155" as="sourcePoint"/>
                        <mxPoint x="482" y="155" as="targetPoint"/>
                    </mxGeometry>
                </mxCell>
                <mxCell id="11" value="Multicore" style="text;html=1;align=center;verticalAlign=middle;resizable=0;points=[];autosize=1;strokeColor=none;fillColor=none;fontSize=18;fontColor=#FF8000;" vertex="1" parent="1">
                    <mxGeometry x="591" y="142" width="91" height="34" as="geometry"/>
                </mxCell>
                <mxCell id="12" value="" style="whiteSpace=wrap;html=1;aspect=fixed;fontSize=18;fontColor=#FF8000;" vertex="1" parent="1">
                    <mxGeometry x="724" y="57" width="224" height="224" as="geometry"/>
                </mxCell>
                <mxCell id="19" value="" style="edgeStyle=none;shape=link;html=1;fontSize=18;fontColor=#FF8000;" edge="1" parent="1" source="13" target="16">
                    <mxGeometry relative="1" as="geometry"/>
                </mxCell>
                <mxCell id="13" value="core" style="whiteSpace=wrap;html=1;aspect=fixed;fontSize=18;fontColor=#FF8000;" vertex="1" parent="1">
                    <mxGeometry x="754" y="86" width="62" height="62" as="geometry"/>
                </mxCell>
                <mxCell id="20" value="" style="edgeStyle=none;shape=link;html=1;fontSize=18;fontColor=#FF8000;" edge="1" parent="1" source="14" target="17">
                    <mxGeometry relative="1" as="geometry"/>
                </mxCell>
                <mxCell id="14" value="core" style="whiteSpace=wrap;html=1;aspect=fixed;fontSize=18;fontColor=#FF8000;" vertex="1" parent="1">
                    <mxGeometry x="857" y="86" width="62" height="62" as="geometry"/>
                </mxCell>
                <mxCell id="16" value="core" style="whiteSpace=wrap;html=1;aspect=fixed;fontSize=18;fontColor=#FF8000;" vertex="1" parent="1">
                    <mxGeometry x="754" y="178" width="62" height="62" as="geometry"/>
                </mxCell>
                <mxCell id="17" value="core" style="whiteSpace=wrap;html=1;aspect=fixed;fontSize=18;fontColor=#FF8000;" vertex="1" parent="1">
                    <mxGeometry x="857" y="178" width="62" height="62" as="geometry"/>
                </mxCell>
                <mxCell id="18" value="CPU" style="text;html=1;align=center;verticalAlign=middle;resizable=0;points=[];autosize=1;strokeColor=none;fillColor=none;fontSize=18;fontColor=#FF8000;" vertex="1" parent="1">
                    <mxGeometry x="956" y="70" width="56" height="34" as="geometry"/>
                </mxCell>
                <mxCell id="21" value="" style="endArrow=none;html=1;fontSize=18;fontColor=#FF8000;shape=link;" edge="1" parent="1">
                    <mxGeometry width="50" height="50" relative="1" as="geometry">
                        <mxPoint x="747" y="164" as="sourcePoint"/>
                        <mxPoint x="922" y="166" as="targetPoint"/>
                    </mxGeometry>
                </mxCell>
            </root>
        </mxGraphModel>
    </diagram>
</mxfile>